<?xml version="1.0" encoding="UTF-8"?>
<svg fill="#CBCACF" enable-background="new 0 0 412.439 412.439" version="1.1" viewBox="0 0 412.44 412.44" xml:space="preserve" xmlns="http://www.w3.org/2000/svg">
<path d="m412.35 212.26c3.366-117.68-91.89-213.95-209.2-212.24-112.91 1.642-204.01 94.89-203.14 207.81 0.62 80.912 47.841 150.72 116.14 183.94 3.951 1.921 8.525-1.066 8.36-5.457-0.498-13.268-0.069-27.452 2.586-38.854 2.613-11.227 12.866-54.643 19.607-83.164 3.281-13.885 3.677-28.303 1.035-42.324-0.867-4.601-1.495-10.006-1.495-16.013 0-30.479 17.666-53.235 39.663-53.235 18.701 0 27.735 14.041 27.735 30.877 0 18.807-11.975 46.925-18.155 72.984-5.164 21.818 10.942 39.61 32.46 39.61 38.96 0 68.907-41.08 68.907-100.38 0-52.483-37.712-89.179-91.561-89.179-62.369 0-98.978 46.781-98.978 95.127 0 18.839 7.258 39.042 16.313 50.024 1.79 2.17 2.054 4.073 1.521 6.287-1.664 6.924-5.362 21.813-6.088 24.859-0.957 4.013-3.177 4.863-7.33 2.932-27.379-12.744-44.494-52.769-44.494-84.919 0-69.147 50.239-132.65 144.83-132.65 76.04 0 135.13 54.184 135.13 126.6 0 75.545-47.633 136.34-113.75 136.34-17.471 0-34.12-7.14-43.908-16.821-3.01-2.977-8.099-1.621-9.173 2.474-3.447 13.133-9.019 34.376-10.814 41.284-3.232 12.429-10.043 26.905-16.871 39.512-1.814 3.35 0.021 7.488 3.714 8.424 16.857 4.275 34.538 6.482 52.764 6.313 108.21-1.004 201.09-91.993 204.18-200.16z"/>
</svg>
