<?xml version="1.0" encoding="UTF-8"?>
<!DOCTYPE svg  PUBLIC '-//W3C//DTD SVG 1.1//EN'  'http://www.w3.org/Graphics/SVG/1.1/DTD/svg11.dtd'>
<svg fill="#CBCACF" enable-background="new 0 0 402.041 402.04" version="1.1" viewBox="0 0 402.04 402.04" xml:space="preserve" xmlns="http://www.w3.org/2000/svg">
		<path d="m54.816 292.38c-15.229 0-28.169 5.331-38.831 15.988-10.655 10.656-15.985 23.599-15.985 38.827 0 15.232 5.325 28.172 15.985 38.828 10.662 10.657 23.606 15.988 38.831 15.988 15.227 0 28.168-5.331 38.828-15.988 10.656-10.656 15.986-23.596 15.986-38.828 0-15.229-5.33-28.171-15.986-38.827-10.657-10.657-23.598-15.988-38.828-15.988z"/>
		<path d="m181.01 221c-21.51-21.698-46.158-38.97-73.948-51.816-27.79-12.85-56.914-20.511-87.366-22.985h-1.425c-4.949 0-9.042 1.619-12.275 4.854-3.999 3.422-5.996 7.898-5.996 13.417v38.543c0 4.757 1.569 8.85 4.708 12.279 3.14 3.429 7.089 5.332 11.848 5.708 43.586 4.189 80.845 21.752 111.77 52.678 30.93 30.926 48.49 68.187 52.677 111.77 0.382 4.764 2.284 8.712 5.712 11.847 3.427 3.148 7.517 4.72 12.275 4.72h38.545c5.517 0 9.989-1.995 13.415-5.996 3.621-3.812 5.236-8.381 4.863-13.709-2.478-30.447-10.14-59.573-22.987-87.361-12.846-27.792-30.121-52.438-51.819-73.95z"/>
		<path d="m367.73 239.7c-20.365-45.585-48.345-86.078-83.936-121.48-35.405-35.594-75.896-63.572-121.48-83.939-45.584-20.363-93.311-31.786-143.18-34.26h-0.855c-4.949 0-9.136 1.713-12.563 5.14-3.805 3.423-5.708 7.804-5.708 13.134v40.825c0 4.76 1.667 8.897 4.996 12.419 3.33 3.523 7.373 5.376 12.132 5.57 40.924 2.478 79.799 12.188 116.63 29.127 36.83 16.94 68.806 38.972 95.93 66.09 27.118 27.123 49.149 59.101 66.089 95.931 16.94 36.836 26.557 75.705 28.839 116.63 0.195 4.764 2.046 8.809 5.564 12.139 3.524 3.329 7.762 4.999 12.71 4.999h40.823c5.331 0 9.701-1.902 13.134-5.715 3.809-3.806 5.517-8.274 5.144-13.415-2.471-49.874-13.898-97.6-34.263-143.19z"/>
</svg>