<?xml version="1.0" encoding="UTF-8"?>
<svg  enable-background="new 0 0 412.07 412.07" version="1.1" viewBox="0 0 412.07 412.07" xml:space="preserve" xmlns="http://www.w3.org/2000/svg">
<g fill="#CBCACF">
	<path d="m347.27 220.66v45.045c0 15.16-12.405 28.069-27.562 27.815-14.733-0.247-26.641-12.307-26.641-27.098v-43.42c0-5.414-5.394-9.171-10.472-7.294l-23.911 8.838c-1.794 0.663-3.77 0.642-5.55-0.06l-14.241-5.619c-5.103-2.013-10.63 1.748-10.63 7.233v38.927c0 50.435 40.05 92.52 90.479 93.288 51.328 0.782 93.331-40.743 93.331-91.894v-45.763c0-3.882-3.147-7.03-7.03-7.03h-50.744c-3.882 3e-3 -7.029 3.15-7.029 7.032z"/>
	<path d="m228.26 141.42v21.523c0 3.193 1.952 6.062 4.922 7.233l20.45 8.068c1.78 0.702 3.755 0.724 5.55 0.06l28.801-10.646c3.053-1.128 5.08-4.039 5.08-7.294v-18.269c0-47.758-37.924-87.611-85.677-88.339-48.604-0.741-88.38 38.581-88.38 87.018v124.93c0 15.16-12.405 28.069-27.562 27.815-14.733-0.247-26.641-12.307-26.641-27.098v-45.763c0-3.882-3.147-7.03-7.03-7.03h-50.743c-3.882 0-7.03 3.147-7.03 7.03v44.367c0 50.434 40.048 92.52 90.477 93.29 51.328 0.784 93.333-40.742 93.333-91.894v-125.65c0-12.626 10.584-22.827 23.345-22.197 11.939 0.591 21.105 10.891 21.105 22.844z"/>
</g>
</svg>
